<svg width="1200" height="1200" viewBox="0 0 1200 1200" fill="none" xmlns="http://www.w3.org/2000/svg">
<rect x="10" y="10" width="1180" height="1180" fill="black"/>
<rect x="10" y="10" width="1180" height="1180" stroke="white" stroke-width="20"/>
<path d="M918 576.01C923.523 576.01 928 580.487 928 586.01V835C928 945.457 838.457 1035 728 1035H524C413.543 1035 324 945.457 324 835V586.01C324 580.487 328.477 576.01 334 576.01H475.541V763.817C475.541 846.816 542.825 914.1 625.824 914.101C709.017 914.101 776.459 846.66 776.459 763.467V576.01H918Z" fill="white"/>
<path d="M806 300C811.523 300 816 304.477 816 310V549.411C816 554.934 811.523 559.411 806 559.411H785C779.477 559.411 775 554.934 775 549.411V341H499V300H806Z" fill="#DEDB20"/>
<path d="M862 246C867.523 246 872 250.477 872 256V549.236C872 554.759 867.523 559.236 862 559.236H841C835.477 559.236 831 554.759 831 549.236V282.051H499V246H862Z" fill="#DEDB20"/>
<path d="M918 191C923.523 191 928 195.477 928 201V549.236C928 554.759 923.523 559.236 918 559.236H897C891.477 559.236 887 554.759 887 549.236V227.447H499V191H918Z" fill="#DEDB20"/>
<path d="M850.044 936.657C844.335 943.482 838.19 950.047 831.608 956.315C730.139 1052.94 563.434 1042.6 459.262 933.21C359.027 827.954 353.21 669.352 443.306 571.432C360.984 669.828 369.217 822.513 466.633 924.809C570.806 1034.2 737.511 1044.54 838.98 947.914C842.817 944.26 846.504 940.505 850.044 936.657Z" fill="#6F4146"/>
<path d="M859.044 936.657C853.335 943.482 847.19 950.047 840.608 956.315C739.139 1052.94 572.434 1042.6 468.262 933.21C368.027 827.954 362.21 669.352 452.306 571.432C369.984 669.828 378.217 822.513 475.633 924.809C579.806 1034.2 746.511 1044.54 847.98 947.914C851.817 944.26 855.504 940.505 859.044 936.657Z" fill="#6F4146"/>
</svg>
